<?xml version="1.0" encoding="UTF-8"?>
<svg width="28px" height="33px" viewBox="0 0 28 33" version="1.1" xmlns="http://www.w3.org/2000/svg" xmlns:xlink="http://www.w3.org/1999/xlink">
    <!-- Generator: Sketch 51.2 (57519) - http://www.bohemiancoding.com/sketch -->
    <title>归档存储</title>
    <desc>Created with Sketch.</desc>
    <defs></defs>
    <g id="Welcome" stroke="none" stroke-width="1" fill="none" fill-rule="evenodd">
        <g id="腾讯云产品图标32px" transform="translate(-175.000000, -273.000000)" fill="#00A4FF" fill-rule="nonzero">
            <g id="存储" transform="translate(81.000000, 273.307692)">
                <g id="归档存储" transform="translate(94.000000, 0.000000)">
                    <path d="M26,22.86 L14.11,29.69 L2,22.85 L2,9.16 L14,2.31 L26,9.17 L28,8 L14,0 L0,8 L0,24 L14.11,32 L28,24 L28,12 L26,13.14 L26,22.86 Z M21,12.31 L21,12.12 L14,8.07 L7,12.07 L7,18 L9,16.83 L14.27,13.83 L15.27,14.42 L9.16,17.94 L11,19.11 L13.14,20.4 L13.94,20.89 L19,18 L19,19.1 L13.77,22.1 L8.92,19.26 L8.92,19.12 L7,20.18 L14,24.18 L21,20.18 L21,14.52 L19,15.63 L13.75,18.63 L12.75,18.04 L19,14.57 L17,13.39 L14.29,11.77 L14.11,11.67 L14.11,11.6 L9,14.51 L9,13.34 L14,10.48 L19,13 L19,13.41 L21,12.31 Z" id="_复合路径_"></path>
                </g>
            </g>
        </g>
    </g>
</svg>