<?xml version="1.0" encoding="utf-8"?>
<!-- Generator: Adobe Illustrator 22.0.0, SVG Export Plug-In . SVG Version: 6.00 Build 0)  -->
<svg version="1.1" xmlns="http://www.w3.org/2000/svg" xmlns:xlink="http://www.w3.org/1999/xlink" x="0px" y="0px" width="32px"
	 height="32px" viewBox="0 0 32 32" style="enable-background:new 0 0 32 32;" xml:space="preserve">
<style type="text/css">
	.st0{fill:#FFFFFF;}
	.st1{fill:#2277DA;}
	.st2{fill-rule:evenodd;clip-rule:evenodd;fill:#2277DA;}
	.st3{fill-rule:evenodd;clip-rule:evenodd;fill:#00A4FF;}
	.st4{fill:#00A4FF;}
	.st5{fill-rule:evenodd;clip-rule:evenodd;fill:#48A3F8;}
	.st6{fill:none;stroke:#2277DA;stroke-width:2;stroke-miterlimit:10;}
	.st7{clip-path:url(#XMLID_1858_);}
	.st8{fill:#606060;}
	.st9{clip-path:url(#XMLID_1862_);}
	.st10{clip-path:url(#XMLID_1863_);fill:#2277DA;}
	.st11{clip-path:url(#XMLID_1864_);}
	.st12{clip-path:url(#XMLID_1865_);fill:#2277DA;}
	.st13{clip-path:url(#XMLID_1868_);}
	.st14{clip-path:url(#XMLID_1912_);fill:#2277DA;}
	.st15{clip-path:url(#XMLID_1913_);}
	.st16{clip-path:url(#XMLID_1914_);fill:#2277DA;}
	.st17{clip-path:url(#XMLID_1975_);}
	.st18{clip-path:url(#XMLID_2061_);fill:#2277DA;}
	.st19{opacity:0.1;enable-background:new    ;}
	.st20{clip-path:url(#XMLID_2062_);}
	.st21{clip-path:url(#XMLID_2063_);}
	.st22{opacity:0.9;clip-path:url(#XMLID_2064_);fill:#2A303C;}
	.st23{fill:none;}
</style>
<g id="图层_2">
</g>
<g id="图层_1">
	<g id="XMLID_314_">
		<g id="XMLID_1671_">
			<polygon id="XMLID_1672_" class="st4" points="21,15.8 16,18.7 11,15.8 11,15.8 9,14.7 9,17 16,21 23,17 23,14.7 21,15.8 			"/>
		</g>
		<g id="XMLID_581_">
			<path id="XMLID_582_" class="st4" d="M16,7l-7,4v2l2,1.1l5,2.9l5-2.9l2-1.1v-2L16,7z M16,14.7L11.3,12L16,9.3l4.7,2.7L16,14.7z"
				/>
		</g>
		<g id="XMLID_556_">
			<g id="XMLID_558_">
				<g id="XMLID_559_">
					<g id="XMLID_560_">
						<g>
							<polygon class="st4" points="28,22.8 16,29.7 4,22.8 4,9.2 16,2.3 28,9.2 28,9.1 30,8 16,0 2,8 2,24 16,32 30,24 30,12 
								28,13.1 							"/>
						</g>
					</g>
				</g>
			</g>
		</g>
		<g id="XMLID_551_">
			<polygon id="XMLID_555_" class="st4" points="21,19.8 16,22.7 11,19.8 11,19.8 9,18.7 9,21 16,25 23,21 23,18.7 21,19.8 			"/>
		</g>
	</g>
	<g id="XMLID_1608_">
		<g id="XMLID_1609_">
			<defs>
				<path id="XMLID_1614_" d="M-162.3-251.5l4-10h-2l-4,10H-162.3z M-155.3-252.5l3-4l-3-4h-2l3,4l-3,4H-155.3z M-167.3-260.5l-3,4
					l3,4h2l-3-4l3-4H-167.3z"/>
			</defs>
			<use xlink:href="#XMLID_1614_"  style="overflow:visible;fill-rule:evenodd;clip-rule:evenodd;fill:#606060;"/>
			<clipPath id="XMLID_1858_">
				<use xlink:href="#XMLID_1614_"  style="overflow:visible;"/>
			</clipPath>
			<g id="XMLID_1612_" class="st7">
				<defs>
					<rect id="XMLID_1613_" x="-1435.3" y="-2652.5" width="1920" height="4026"/>
				</defs>
				<use xlink:href="#XMLID_1613_"  style="overflow:visible;fill:#606060;"/>
				<clipPath id="XMLID_1859_">
					<use xlink:href="#XMLID_1613_"  style="overflow:visible;"/>
				</clipPath>
			</g>
		</g>
	</g>
	<rect id="XMLID_1666_" x="-1668.9" y="-1585.3" class="st23" width="1920" height="3552"/>
	<rect id="XMLID_1248_" x="-1668.9" y="-1630.6" class="st23" width="1920" height="3552"/>
	<rect id="XMLID_1253_" x="-1668.9" y="-1675.6" class="st23" width="1920" height="3552"/>
	<rect id="XMLID_1252_" x="-1668.9" y="-1720.9" class="st23" width="1920" height="3552"/>
	<rect id="XMLID_1917_" x="-1668.9" y="-1625.3" class="st23" width="1920" height="3552"/>
	<rect id="XMLID_1916_" x="-1668.9" y="-1670.6" class="st23" width="1920" height="3552"/>
	<rect id="XMLID_1915_" x="-1668.9" y="-1715.6" class="st23" width="1920" height="3552"/>
	<rect id="XMLID_59_" x="-1668.9" y="-1760.9" class="st23" width="1920" height="3552"/>
	<rect id="XMLID_1952_" x="-1668.9" y="-1628.3" class="st23" width="1920" height="3552"/>
	<rect id="XMLID_1951_" x="-1668.9" y="-1673.6" class="st23" width="1920" height="3552"/>
	<rect id="XMLID_1949_" x="-1668.9" y="-1718.6" class="st23" width="1920" height="3552"/>
	<rect id="XMLID_1948_" x="-1668.9" y="-1763.9" class="st23" width="1920" height="3552"/>
	<rect id="XMLID_1947_" x="-1668.9" y="-1668.3" class="st23" width="1920" height="3552"/>
	<rect id="XMLID_1924_" x="-1668.9" y="-1713.6" class="st23" width="1920" height="3552"/>
	<rect id="XMLID_1921_" x="-1668.9" y="-1758.6" class="st23" width="1920" height="3552"/>
	<rect id="XMLID_1918_" x="-1668.9" y="-1803.9" class="st23" width="1920" height="3552"/>
	<rect id="XMLID_1985_" x="-1668.9" y="-1628.3" class="st23" width="1920" height="3552"/>
	<rect id="XMLID_1984_" x="-1668.9" y="-1673.6" class="st23" width="1920" height="3552"/>
	<rect id="XMLID_1983_" x="-1668.9" y="-1718.6" class="st23" width="1920" height="3552"/>
	<rect id="XMLID_1982_" x="-1668.9" y="-1763.9" class="st23" width="1920" height="3552"/>
	<rect id="XMLID_1981_" x="-1668.9" y="-1668.3" class="st23" width="1920" height="3552"/>
	<rect id="XMLID_1977_" x="-1668.9" y="-1713.6" class="st23" width="1920" height="3552"/>
	<rect id="XMLID_1976_" x="-1668.9" y="-1758.6" class="st23" width="1920" height="3552"/>
	<rect id="XMLID_1974_" x="-1668.9" y="-1803.9" class="st23" width="1920" height="3552"/>
	<rect id="XMLID_1973_" x="-1668.9" y="-1671.3" class="st23" width="1920" height="3552"/>
	<rect id="XMLID_1972_" x="-1668.9" y="-1716.6" class="st23" width="1920" height="3552"/>
	<rect id="XMLID_1961_" x="-1668.9" y="-1761.6" class="st23" width="1920" height="3552"/>
	<rect id="XMLID_1960_" x="-1668.9" y="-1806.9" class="st23" width="1920" height="3552"/>
	<rect id="XMLID_1959_" x="-1668.9" y="-1711.3" class="st23" width="1920" height="3552"/>
	<rect id="XMLID_1958_" x="-1668.9" y="-1756.6" class="st23" width="1920" height="3552"/>
	<rect id="XMLID_1957_" x="-1668.9" y="-1801.6" class="st23" width="1920" height="3552"/>
	<rect id="XMLID_1953_" x="-1668.9" y="-1846.9" class="st23" width="1920" height="3552"/>
	<rect id="XMLID_2058_" x="-1716.4" y="-1585.3" class="st23" width="1920" height="3552"/>
	<rect id="XMLID_2056_" x="-1716.4" y="-1630.6" class="st23" width="1920" height="3552"/>
	<rect id="XMLID_2049_" x="-1716.4" y="-1675.6" class="st23" width="1920" height="3552"/>
	<rect id="XMLID_2038_" x="-1716.4" y="-1720.9" class="st23" width="1920" height="3552"/>
	<rect id="XMLID_2037_" x="-1716.4" y="-1625.3" class="st23" width="1920" height="3552"/>
	<rect id="XMLID_2036_" x="-1716.4" y="-1670.6" class="st23" width="1920" height="3552"/>
	<rect id="XMLID_2035_" x="-1716.4" y="-1715.6" class="st23" width="1920" height="3552"/>
	<rect id="XMLID_2034_" x="-1716.4" y="-1760.9" class="st23" width="1920" height="3552"/>
	<rect id="XMLID_2031_" x="-1716.4" y="-1628.3" class="st23" width="1920" height="3552"/>
	<rect id="XMLID_2030_" x="-1716.4" y="-1673.6" class="st23" width="1920" height="3552"/>
	<rect id="XMLID_2029_" x="-1716.4" y="-1718.6" class="st23" width="1920" height="3552"/>
	<rect id="XMLID_2028_" x="-1716.4" y="-1763.9" class="st23" width="1920" height="3552"/>
	<rect id="XMLID_2027_" x="-1716.4" y="-1668.3" class="st23" width="1920" height="3552"/>
	<rect id="XMLID_2026_" x="-1716.4" y="-1713.6" class="st23" width="1920" height="3552"/>
	<rect id="XMLID_2025_" x="-1716.4" y="-1758.6" class="st23" width="1920" height="3552"/>
	<rect id="XMLID_2024_" x="-1716.4" y="-1803.9" class="st23" width="1920" height="3552"/>
	<rect id="XMLID_2023_" x="-1716.4" y="-1628.3" class="st23" width="1920" height="3552"/>
	<rect id="XMLID_2022_" x="-1716.4" y="-1673.6" class="st23" width="1920" height="3552"/>
	<rect id="XMLID_2021_" x="-1716.4" y="-1718.6" class="st23" width="1920" height="3552"/>
	<rect id="XMLID_2020_" x="-1716.4" y="-1763.9" class="st23" width="1920" height="3552"/>
	<rect id="XMLID_2019_" x="-1716.4" y="-1668.3" class="st23" width="1920" height="3552"/>
	<rect id="XMLID_2018_" x="-1716.4" y="-1713.6" class="st23" width="1920" height="3552"/>
	<rect id="XMLID_2012_" x="-1716.4" y="-1758.6" class="st23" width="1920" height="3552"/>
	<rect id="XMLID_2011_" x="-1716.4" y="-1803.9" class="st23" width="1920" height="3552"/>
	<rect id="XMLID_2010_" x="-1716.4" y="-1671.3" class="st23" width="1920" height="3552"/>
	<rect id="XMLID_2009_" x="-1716.4" y="-1716.6" class="st23" width="1920" height="3552"/>
	<rect id="XMLID_2008_" x="-1716.4" y="-1761.6" class="st23" width="1920" height="3552"/>
	<rect id="XMLID_2007_" x="-1716.4" y="-1806.9" class="st23" width="1920" height="3552"/>
	<rect id="XMLID_1990_" x="-1716.4" y="-1711.3" class="st23" width="1920" height="3552"/>
	<rect id="XMLID_1988_" x="-1716.4" y="-1756.6" class="st23" width="1920" height="3552"/>
	<rect id="XMLID_1987_" x="-1716.4" y="-1801.6" class="st23" width="1920" height="3552"/>
	<rect id="XMLID_1986_" x="-1716.4" y="-1846.9" class="st23" width="1920" height="3552"/>
	<rect id="XMLID_2159_" x="-1717.9" y="-1585.3" class="st23" width="1920" height="3552"/>
	<rect id="XMLID_2158_" x="-1717.9" y="-1630.6" class="st23" width="1920" height="3552"/>
	<rect id="XMLID_2157_" x="-1717.9" y="-1675.6" class="st23" width="1920" height="3552"/>
	<rect id="XMLID_2156_" x="-1717.9" y="-1720.9" class="st23" width="1920" height="3552"/>
	<rect id="XMLID_2155_" x="-1717.9" y="-1625.3" class="st23" width="1920" height="3552"/>
	<rect id="XMLID_2154_" x="-1717.9" y="-1670.6" class="st23" width="1920" height="3552"/>
	<rect id="XMLID_2153_" x="-1717.9" y="-1715.6" class="st23" width="1920" height="3552"/>
	<rect id="XMLID_2152_" x="-1717.9" y="-1760.9" class="st23" width="1920" height="3552"/>
	<rect id="XMLID_2151_" x="-1717.9" y="-1628.3" class="st23" width="1920" height="3552"/>
	<rect id="XMLID_2150_" x="-1717.9" y="-1673.6" class="st23" width="1920" height="3552"/>
	<rect id="XMLID_2149_" x="-1717.9" y="-1718.6" class="st23" width="1920" height="3552"/>
	<rect id="XMLID_2148_" x="-1717.9" y="-1763.9" class="st23" width="1920" height="3552"/>
	<rect id="XMLID_2147_" x="-1717.9" y="-1668.3" class="st23" width="1920" height="3552"/>
	<rect id="XMLID_2146_" x="-1717.9" y="-1713.6" class="st23" width="1920" height="3552"/>
	<rect id="XMLID_2145_" x="-1717.9" y="-1758.6" class="st23" width="1920" height="3552"/>
	<rect id="XMLID_2144_" x="-1717.9" y="-1803.9" class="st23" width="1920" height="3552"/>
	<rect id="XMLID_2143_" x="-1717.9" y="-1628.3" class="st23" width="1920" height="3552"/>
	<rect id="XMLID_2142_" x="-1717.9" y="-1673.6" class="st23" width="1920" height="3552"/>
	<rect id="XMLID_2141_" x="-1717.9" y="-1718.6" class="st23" width="1920" height="3552"/>
	<rect id="XMLID_2140_" x="-1717.9" y="-1763.9" class="st23" width="1920" height="3552"/>
	<rect id="XMLID_2139_" x="-1717.9" y="-1668.3" class="st23" width="1920" height="3552"/>
	<rect id="XMLID_2138_" x="-1717.9" y="-1713.6" class="st23" width="1920" height="3552"/>
	<rect id="XMLID_2137_" x="-1717.9" y="-1758.6" class="st23" width="1920" height="3552"/>
	<rect id="XMLID_2136_" x="-1717.9" y="-1803.9" class="st23" width="1920" height="3552"/>
	<rect id="XMLID_2135_" x="-1717.9" y="-1671.3" class="st23" width="1920" height="3552"/>
	<rect id="XMLID_2134_" x="-1717.9" y="-1716.6" class="st23" width="1920" height="3552"/>
	<rect id="XMLID_2133_" x="-1717.9" y="-1761.6" class="st23" width="1920" height="3552"/>
	<rect id="XMLID_2132_" x="-1717.9" y="-1806.9" class="st23" width="1920" height="3552"/>
	<rect id="XMLID_2131_" x="-1717.9" y="-1711.3" class="st23" width="1920" height="3552"/>
	<rect id="XMLID_2130_" x="-1717.9" y="-1756.6" class="st23" width="1920" height="3552"/>
	<rect id="XMLID_2129_" x="-1717.9" y="-1801.6" class="st23" width="1920" height="3552"/>
	<rect id="XMLID_2128_" x="-1717.9" y="-1846.9" class="st23" width="1920" height="3552"/>
</g>
<g id="图层_3">
</g>
</svg>
