<?xml version="1.0" encoding="utf-8"?>
<!-- Generator: Adobe Illustrator 22.0.1, SVG Export Plug-In . SVG Version: 6.00 Build 0)  -->
<svg version="1.1" id="图层_1" xmlns="http://www.w3.org/2000/svg" xmlns:xlink="http://www.w3.org/1999/xlink" x="0px" y="0px"
	 width="32px" height="32px" viewBox="0 0 32 32" style="enable-background:new 0 0 32 32;" xml:space="preserve">
<style type="text/css">
	.st0{fill:#00A4FF;}
</style>
<title>Product Icons【32】</title>
<g>
	<g id="_编组_">
		<path class="st0" d="M28.8,18c-1.1,7.1-7.8,11.9-14.8,10.8C6.9,27.7,2,21.1,3.1,14S10.9,2.1,18,3.2C23.6,4,28,8.4,28.8,14h2
			C29.7,5.8,22.2,0,14,1.1S0,9.8,1.1,18S9.8,32,18,30.9c6.7-0.9,12-6.2,12.9-12.9H28.8z"/>
	</g>
	<g>
		<path class="st0" d="M9,12v3h6V8.6L9,12z M13,13h-1.7l1.7-1V13z"/>
		<path class="st0" d="M17,8.6V15h6v-3L17,8.6z M19,12l1.7,1H19V12z"/>
		<path class="st0" d="M23,20v-3h-6v6.4L23,20z M19,19h1.7L19,20V19z"/>
		<path class="st0" d="M15,23.4V17H9v3L15,23.4z M13,20l-1.7-1H13V20z"/>
	</g>
</g>
</svg>
