<svg id="图层_1" data-name="图层 1" xmlns="http://www.w3.org/2000/svg" width="32" height="32" viewBox="0 0 32 32">
  <defs>
    <style>
      .cls-1 {
        fill: #00a4ff;
      }
    </style>
  </defs>
  <title>Product Icons【32】</title>
  <g id="_编组_" data-name="&lt;编组&gt;">
    <g id="_编组_2" data-name="&lt;编组&gt;">
      <path id="_复合路径_" data-name="&lt;复合路径&gt;" class="cls-1" d="M9,12v8l7,4,7-4V12L16,8Zm6,9.13-4-2.29v-3.7l4,2.29Zm6-2.29-4,2.29v-3.7l4-2.29ZM16,15.7,11.28,13,16,10.3,20.72,13Zm12,7.14L16,29.7,4,22.84V9.16L16,2.3,28,9.16v0L30,8,16,0,2,8V24l14,8,14-8V12l-2,1.14Z"/>
    </g>
  </g>
</svg>
